<?xml version="1.0" standalone="no"?>
<!DOCTYPE svg PUBLIC "-//W3C//DTD SVG 20010904//EN"
 "http://www.w3.org/TR/2001/REC-SVG-20010904/DTD/svg10.dtd">
<svg version="1.0" xmlns="http://www.w3.org/2000/svg"
 width="534.000000pt" height="534.000000pt" viewBox="0 0 534.000000 534.000000"
 preserveAspectRatio="xMidYMid meet">
<metadata>
Created by potrace 1.11, written by Peter Selinger 2001-2013
</metadata>
<g transform="translate(0.000000,534.000000) scale(0.100000,-0.100000)"
fill="#000000" stroke="none">
<path d="M2360 4945 c-251 -35 -461 -100 -695 -214 -260 -128 -464 -277 -658
-481 -289 -304 -497 -697 -580 -1095 -37 -176 -48 -284 -47 -490 0 -210 21
-389 69 -571 211 -798 850 -1436 1643 -1638 950 -243 1935 134 2479 947 598
893 493 2081 -251 2851 -367 380 -813 611 -1323 686 -157 24 -485 26 -637 5z
m2076 -1452 c33 -11 67 -34 105 -72 64 -64 89 -124 89 -211 0 -87 -25 -147
-89 -211 -71 -70 -133 -94 -230 -87 -108 8 -193 63 -247 160 -26 47 -29 62
-29 138 0 72 4 92 27 135 39 74 108 133 179 153 54 16 141 13 195 -5z m-1034
-4 c79 -17 170 -63 231 -119 177 -162 196 -474 39 -639 l-38 -40 42 -42 c23
-23 55 -69 71 -103 26 -56 28 -71 28 -181 0 -142 -18 -208 -80 -300 -47 -69
-138 -136 -218 -160 -74 -23 -204 -30 -279 -16 -135 27 -258 113 -311 217 -47
92 -59 156 -55 278 4 129 27 193 97 269 l40 44 -35 34 c-19 19 -49 63 -67 98
-27 55 -32 77 -35 159 -7 163 31 275 129 373 112 112 281 161 441 128z m-1532
-169 l0 -160 -195 0 -195 0 0 -630 0 -630 -160 0 -160 0 0 630 0 630 -197 2
-198 3 -3 158 -3 157 556 0 555 0 0 -160z m690 -630 l0 -790 -155 0 -155 0 0
630 0 630 -130 0 -130 0 0 160 0 160 285 0 285 0 0 -790z"/>
<path d="M4273 3379 c-73 -21 -133 -119 -118 -192 31 -145 186 -202 296 -110
42 36 59 74 59 133 0 79 -37 133 -112 165 -41 17 -77 18 -125 4z"/>
<path d="M3249 3170 c-42 -12 -79 -41 -96 -74 -23 -44 -21 -126 5 -168 59 -95
210 -101 280 -10 23 30 27 45 27 98 0 75 -20 108 -85 142 -45 22 -85 26 -131
12z"/>
<path d="M3261 2530 c-18 -4 -45 -17 -60 -27 -33 -24 -71 -98 -71 -138 0 -45
40 -116 79 -142 25 -17 48 -23 91 -23 114 0 187 90 166 205 -10 52 -66 110
-121 124 -24 6 -45 11 -47 10 -2 -1 -18 -5 -37 -9z"/>
</g>
</svg>
